/* XPM */
static char *_3cdb6af6e404f838101c86b3b98e8a5kTepi2Czp9UYYYu5[] = {
/* columns rows colors chars-per-pixel */
"20 20 37 1 ",
"  c black",
". c #000006",
"X c #0D0C01",
"o c #00000B",
"O c #00000E",
"+ c #06060D",
"@ c #131300",
"# c #151500",
"$ c #000014",
"% c #00001B",
"& c #161615",
"* c #212107",
"= c #2C2B00",
"- c #20200D",
"; c #2A2A0E",
": c #313115",
"> c #37371B",
", c #31311C",
"< c #3C3B18",
"1 c #000023",
"2 c #000028",
"3 c #00002D",
"4 c #191A2C",
"5 c #000030",
"6 c #2A2A27",
"7 c #3C3C20",
"8 c #3C3C29",
"9 c #343434",
"0 c #414124",
"q c #444444",
"w c #0023FA",
"e c #0024FB",
"r c #0023FD",
"t c #0026FF",
"y c #FBFBFA",
"u c #FCFCFB",
"i c white",
/* pixels */
"iiiiiiiiiiiiiiiiiiii",
"iiiiiiiiy qiiiiiiiii",
"iiiiiiiy5r0iiiiiiiii",
"iiiiiiiy$r7iiiiiiiii",
"iiiiiiy3tw>iiiiiiiii",
"iiiiiiu$te,iiiiiiiii",
"iiiiiii ttt-iiiiiiii",
"iiiiii4ttttt+iiiiiii",
"iiiiii ttttttOiyyyyi",
"iiiiii tttttttO%12 i",
"iiiii9 tttttttttrrqi",
"iiiii@etttttttew8<ii",
"iiiii*ttttttt6:=iiii",
"iiiii;ttt3X# iiiiiii",
"iiiii&o.  iiiiiiiiii",
"iiiiiiiiiiiiiiiiiiii",
"iiiiiiiiiiiiiiiiiiii",
"iiiiiiiiiiiiiiiiiiii",
"iiiiiiiiiiiiiiiiiiii",
"iiiiiiiiiiiiiiiiiiii"
};
