/* XPM */
static char *_1c2e25c0cd34414ce5059176e2afb0ammhtdlmv9A9coM6E[] = {
/* columns rows colors chars-per-pixel */
"20 20 3 1 ",
"  c white",
". c black",
"X c #0026FF",
/* pixels */
"                    ",
"                    ",
"                    ",
"   ..          ..   ",
"   .X.        .X.   ",
"   .XX.      .XX.   ",
"    .XX......XX.    ",
"    .XXXXXXXXXX.    ",
"     .XXXXXXXX.     ",
"     .XXXXXXXX.     ",
"      .XXXXXX.      ",
"      .XXXXXX.      ",
"       .XXXX.       ",
"       .XXXX.       ",
"        .XX.        ",
"        .XX.        ",
"         ..         ",
"                    ",
"                    ",
"                    "
};
