/* XPM */
static char *c1cd466aae184569c65d34909c535efbnCCPsyK3ODxwL7aM[] = {
/* columns rows colors chars-per-pixel */
"20 20 3 1 ",
"  c white",
". c black",
"X c #0026FF",
/* pixels */
"                    ",
"                    ",
"                    ",
"   ...              ",
"   .XX..            ",
"    .XXX..          ",
"     .XXXX..        ",
"      .XXXXX..      ",
"      .XXXXXXX..    ",
"      .XXXXXXXXX.   ",
"      .XXXXXXXXX.   ",
"      .XXXXXXX..    ",
"      .XXXXX..      ",
"     .XXXX..        ",
"    .XXX..          ",
"   .XX..            ",
"   ...              ",
"                    ",
"                    ",
"                    "
};
