/* XPM */
static char *_4ffee226ecc45e88842198a732592deDlOxB191NYZJLagY[] = {
/* columns rows colors chars-per-pixel */
"20 20 44 1 ",
"  c black",
". c #040303",
"X c #0D0C04",
"o c #07080C",
"O c #131200",
"+ c #151500",
"@ c #000112",
"# c #0A0B15",
"$ c #0C0D16",
"% c #0F101B",
"& c #131416",
"* c #161616",
"= c #14151E",
"- c #21210B",
"; c #202017",
": c #292914",
"> c #20201F",
", c #30301E",
"< c #00012D",
"1 c #151621",
"2 c #1A1B26",
"3 c #19192C",
"4 c #1E1D2C",
"5 c #1E1E30",
"6 c #232323",
"7 c #232324",
"8 c #2A2A27",
"9 c #2B2A28",
"0 c #303021",
"q c #363626",
"w c #3B3B2F",
"e c #222136",
"r c #343434",
"t c #3A3A36",
"y c #3F3F35",
"u c gray25",
"i c #001AFA",
"p c #001EFB",
"a c #0024FB",
"s c #0023FD",
"d c #0025FD",
"f c #FBFBFB",
"g c #FCFCFB",
"h c white",
/* pixels */
"hhhhhhhhhhhhhhhhhhhh",
"hhhhhhhhhhhhhhhhhhhh",
"hhhhhhhhhhhhhhhhhhhh",
"hhhhhhhhhhhhhhhhhhhh",
"hhhhhhhhhhhhhhhhhhhh",
"hhhhh>#o *hhhhhhhhhh",
"hhhhh:sdd<X+&hhhhhhh",
"hhhhh-ddddddd8,9hhhh",
"hhhhhOdddddddddswthh",
"hhhhhr@ddddddddspiuh",
"hhhhhh.ddddddd125e6h",
"hhhhhh dddddd$hffffh",
"hhhhhh3ddddd$hhhhhhh",
"hhhhhhh%ddd;hhhhhhhh",
"hhhhhhg=da0hhhhhhhhh",
"hhhhhhf4saqhhhhhhhhh",
"hhhhhhhf5pwhhhhhhhhh",
"hhhhhhhfeiyhhhhhhhhh",
"hhhhhhhhf7uhhhhhhhhh",
"hhhhhhhhhhhhhhhhhhhh"
};
